<svg xmlns="http://www.w3.org/2000/svg" viewBox="0 0 100 80" fill="none">
  <circle cx="50" cy="72" r="4" fill="#e0d9d0"/>
  <line x1="50" y1="68" x2="50" y2="52" stroke="#e0d9d0" stroke-width="1.5"/>
  <circle cx="28" cy="46" r="3.5" fill="#e0d9d0"/>
  <circle cx="72" cy="46" r="3.5" fill="#e0d9d0"/>
  <line x1="50" y1="52" x2="28" y2="46" stroke="#e0d9d0" stroke-width="1.5"/>
  <line x1="50" y1="52" x2="72" y2="46" stroke="#e0d9d0" stroke-width="1.5"/>
  <circle cx="14" cy="28" r="3" fill="#e0d9d0"/>
  <circle cx="36" cy="28" r="3" fill="#e0d9d0"/>
  <circle cx="64" cy="28" r="3" fill="#e0d9d0"/>
  <circle cx="86" cy="28" r="3" fill="#e0d9d0"/>
  <line x1="28" y1="43" x2="14" y2="28" stroke="#e0d9d0" stroke-width="1"/>
  <line x1="28" y1="43" x2="36" y2="28" stroke="#e0d9d0" stroke-width="1"/>
  <line x1="72" y1="43" x2="64" y2="28" stroke="#e0d9d0" stroke-width="1"/>
  <line x1="72" y1="43" x2="86" y2="28" stroke="#e0d9d0" stroke-width="1"/>
  <circle cx="8"  cy="14" r="2.5" fill="#e0d9d0" opacity="0.5"/>
  <circle cx="20" cy="14" r="2.5" fill="#e0d9d0" opacity="0.5"/>
  <circle cx="80" cy="14" r="2.5" fill="#e0d9d0" opacity="0.5"/>
  <circle cx="92" cy="14" r="2.5" fill="#e0d9d0" opacity="0.5"/>
  <line x1="14" y1="25" x2="8"  y2="14" stroke="#e0d9d0" stroke-width="0.8" opacity="0.5"/>
  <line x1="14" y1="25" x2="20" y2="14" stroke="#e0d9d0" stroke-width="0.8" opacity="0.5"/>
  <line x1="86" y1="25" x2="80" y2="14" stroke="#e0d9d0" stroke-width="0.8" opacity="0.5"/>
  <line x1="86" y1="25" x2="92" y2="14" stroke="#e0d9d0" stroke-width="0.8" opacity="0.5"/>
</svg>
